<?xml version="1.0" standalone="no"?>
<!DOCTYPE svg PUBLIC "-//W3C//DTD SVG 20010904//EN"
 "http://www.w3.org/TR/2001/REC-SVG-20010904/DTD/svg10.dtd">
<svg version="1.0" xmlns="http://www.w3.org/2000/svg"
 width="1024.000000pt" height="977.000000pt" viewBox="0 0 1024.000000 977.000000"
 preserveAspectRatio="xMidYMid meet">
<metadata>
Created by potrace 1.16, written by Peter Selinger 2001-2019
</metadata>
<g transform="translate(0.000000,977.000000) scale(0.100000,-0.100000)"
fill="#c8a870" stroke="none">
<path d="M5065 9206 c-41 -18 -82 -68 -95 -114 -16 -59 -13 -757 4 -805 18
-50 42 -76 91 -98 76 -35 163 -15 212 49 l28 37 3 408 c3 455 3 452 -65 504
-42 32 -130 42 -178 19z"/>
<path d="M3214 8650 c-83 -18 -144 -93 -144 -178 0 -50 42 -138 159 -336 43
-72 104 -176 135 -231 78 -136 101 -159 173 -175 117 -27 241 90 218 203 -4
18 -42 93 -85 167 -301 524 -292 509 -335 533 -30 16 -86 24 -121 17z"/>
<path d="M6955 8631 c-43 -26 -52 -38 -167 -231 -223 -374 -252 -429 -255
-490 -7 -103 68 -181 176 -182 94 0 117 21 245 236 247 415 266 451 266 509 0
61 -36 126 -86 154 -50 29 -136 31 -179 4z"/>
<path d="M4843 7905 c-539 -68 -1055 -321 -1445 -707 -141 -141 -230 -249
-335 -409 -173 -264 -270 -488 -347 -802 -100 -404 -86 -868 37 -1287 78 -264
175 -468 335 -709 277 -415 718 -770 1169 -942 485 -184 947 -213 1425 -89
452 117 841 342 1178 680 313 314 534 675 654 1070 80 266 110 464 110 730 0
333 -55 615 -186 945 -199 503 -658 1000 -1158 1254 -265 135 -485 209 -770
257 -134 22 -519 28 -667 9z m557 -370 c314 -42 530 -118 805 -280 239 -142
466 -345 635 -570 351 -467 491 -1071 379 -1630 -69 -341 -222 -671 -433 -935
-237 -297 -456 -475 -781 -635 -326 -161 -578 -225 -888 -225 -301 0 -563 61
-843 195 -246 118 -401 224 -583 400 -188 182 -319 359 -436 592 -180 361
-266 766 -235 1118 36 416 195 833 438 1145 264 338 631 602 1021 735 98 33
300 78 426 94 112 14 380 12 495 -4z"/>
<path d="M4020 6465 c-132 -26 -278 -95 -398 -187 -152 -117 -286 -336 -327
-533 -19 -93 -19 -288 -1 -377 30 -138 121 -319 210 -416 57 -62 172 -152 247
-194 226 -126 552 -138 786 -29 142 67 238 149 376 320 56 69 144 178 197 242
164 201 293 359 396 489 122 152 181 211 257 257 84 51 160 75 257 80 153 9
288 -40 401 -145 121 -111 179 -243 179 -404 0 -153 -44 -265 -148 -379 -71
-77 -147 -121 -258 -149 -97 -25 -151 -25 -246 -1 -138 35 -189 69 -336 218
-74 74 -135 133 -136 131 -19 -27 -127 -165 -223 -285 l-123 -154 0 -314 c0
-269 2 -315 15 -315 36 0 125 25 170 48 151 76 205 178 205 389 0 46 2 83 5
83 2 0 33 -20 69 -45 82 -57 156 -90 265 -117 119 -30 300 -29 426 1 335 81
605 369 670 716 23 119 16 308 -15 414 -65 227 -205 415 -392 531 -159 97
-312 140 -500 140 -188 -1 -344 -45 -503 -145 -127 -79 -140 -93 -829 -950
-178 -222 -222 -264 -317 -310 -155 -74 -302 -71 -466 10 -108 53 -161 107
-224 228 -93 178 -85 371 22 538 55 85 81 112 164 169 98 66 171 91 280 97
190 11 347 -62 495 -227 34 -39 65 -70 70 -70 4 0 61 64 125 142 l118 141 -99
97 c-143 139 -289 220 -472 260 -102 23 -291 25 -392 5z"/>
<path d="M1885 7234 c-11 -3 -30 -7 -42 -9 -30 -7 -81 -51 -100 -88 -33 -65
-15 -165 39 -213 18 -17 303 -182 593 -344 96 -54 175 -48 238 16 76 78 73
186 -7 259 -35 32 -343 210 -600 347 -55 30 -90 39 -121 32z"/>
<path d="M8289 7197 c-54 -28 -495 -275 -582 -325 -119 -70 -103 -272 26 -321
73 -28 159 -3 299 85 22 14 127 75 232 134 251 143 263 152 288 207 52 117
-35 252 -163 253 -22 0 -62 -13 -100 -33z"/>
<path d="M1420 5381 c-80 -43 -119 -138 -91 -224 15 -45 80 -104 123 -112 18
-3 203 -5 410 -3 362 3 378 4 404 24 51 37 68 70 72 137 5 83 -25 142 -88 175
-44 22 -50 22 -420 22 -346 0 -378 -1 -410 -19z"/>
<path d="M8035 5386 c-57 -25 -105 -101 -105 -164 0 -68 50 -147 109 -172 18
-7 150 -10 417 -8 l391 3 36 28 c44 33 65 71 73 129 8 63 -35 143 -95 175 -44
23 -46 23 -420 23 -291 -1 -383 -4 -406 -14z"/>
<path d="M2541 3955 c-98 -43 -659 -394 -683 -428 -27 -38 -36 -133 -18 -177
17 -41 85 -98 127 -106 18 -3 48 -3 66 0 44 8 602 337 690 406 40 32 60 77 60
136 0 73 -33 127 -97 159 -56 28 -96 31 -145 10z"/>
<path d="M7597 3935 c-104 -37 -148 -154 -94 -254 22 -43 96 -93 466 -317 35
-22 98 -60 140 -87 42 -26 93 -52 113 -58 87 -23 184 39 209 133 11 40 10 55
-4 101 -9 29 -27 63 -39 74 -13 12 -81 57 -153 100 -71 44 -209 128 -305 188
-227 141 -252 150 -333 120z"/>
<path d="M3605 2919 c-51 -14 -87 -64 -232 -319 -77 -135 -160 -278 -183 -318
-35 -61 -43 -83 -43 -126 0 -28 7 -65 16 -81 52 -100 177 -133 268 -72 34 23
68 76 189 292 36 66 102 181 145 255 90 156 103 206 67 276 -24 48 -47 69 -95
89 -40 16 -85 18 -132 4z"/>
<path d="M6532 2896 c-45 -16 -98 -70 -113 -113 -21 -65 -7 -108 96 -293 53
-96 131 -236 172 -310 94 -169 115 -198 167 -221 131 -59 270 43 253 187 -3
32 -39 104 -130 266 -68 123 -146 264 -172 313 -27 50 -62 105 -79 124 -53 58
-120 74 -194 47z"/>
<path d="M5065 2506 c-42 -18 -93 -79 -100 -118 -3 -18 -5 -211 -3 -429 l3
-396 28 -36 c38 -49 81 -71 142 -70 77 0 140 41 164 106 18 46 15 809 -3 850
-37 88 -145 131 -231 93z"/>
</g>
</svg>
